HIERARCHY
ROOT pelvis
{
  OFFSET 0 100 0
  CHANNELS 6 Xposition Yposition Zposition Zrotation Xrotation Yrotation
  JOINT pelvis_right_femur
  {
    OFFSET -10.78128 -3.44521 -0.5502486
    CHANNELS 3 Zrotation Xrotation Yrotation
    JOINT right_femur_tibia
    {
      OFFSET -0.8047443 -44.0398 -0.1307829
      CHANNELS 3 Zrotation Xrotation Yrotation
      JOINT right_tibia_foot
      {
        OFFSET 3.006224 -47.83518 -5
        CHANNELS 3 Zrotation Xrotation Yrotation
        End Site
        {
          OFFSET 0 -5 15
        }
      }
    }
  }
  JOINT pelvis_left_femur
  {
    OFFSET 10.78128 -3.44521 -0.5502486
    CHANNELS 3 Zrotation Xrotation Yrotation
    JOINT left_femur_tibia
    {
      OFFSET 0.8047443 -44.0398 -0.1307829
      CHANNELS 3 Zrotation Xrotation Yrotation
      JOINT left_tibia_foot
      {
        OFFSET -4.370144 -48.10324 -4.275266
        CHANNELS 3 Zrotation Xrotation Yrotation
        End Site
        {
          OFFSET 0 -5 15
        }
      }
    }
  }
  JOINT pelvis_spine1
  {
    OFFSET 0 6.468898 -3.129235
    CHANNELS 3 Zrotation Xrotation Yrotation
    JOINT spine1
    {
      OFFSET 0 23.15396 4.99043
      CHANNELS 3 Zrotation Xrotation Yrotation
      JOINT spine2
      {
        OFFSET 0 20.79997 -5.064912
        CHANNELS 3 Zrotation Xrotation Yrotation
        JOINT neck
        {
          OFFSET 0 14.38658 9.616178
          CHANNELS 3 Zrotation Xrotation Yrotation
          End Site
          {
            OFFSET 0 20 0
          }
        }
      }
      JOINT right_manubrium
      {
        OFFSET -5.722621 16.35077 3.967754
        CHANNELS 3 Zrotation Xrotation Yrotation
        JOINT right_clavicle
        {
          OFFSET -13.16364 1.694482 -4.693211
          CHANNELS 3 Zrotation Xrotation Yrotation
          JOINT right_humerus
          {
            OFFSET -28.5034 -0.3100689 -2.792744
            CHANNELS 3 Zrotation Xrotation Yrotation
            JOINT right_radius
            {
              OFFSET -25.15693 0.02248979 -1.271978
              CHANNELS 3 Zrotation Xrotation Yrotation
              End Site
              {
                OFFSET -15 0 0
              }
            }
          }
        }
      }
      JOINT left_manubrium
      {
        OFFSET 5.722621 16.35077 3.967754
        CHANNELS 3 Zrotation Xrotation Yrotation
        JOINT left_clavicle
        {
          OFFSET 13.16364 1.694482 -4.693211
          CHANNELS 3 Zrotation Xrotation Yrotation
          JOINT left_humerus
          {
            OFFSET 29.39168 -1.063119 -2.237045
            CHANNELS 3 Zrotation Xrotation Yrotation
            JOINT left_radius
            {
              OFFSET 24.59957 -0.9528479 0.9047498
              CHANNELS 3 Zrotation Xrotation Yrotation
              End Site
              {
                OFFSET 15 -0 -0
              }
            }
          }
        }
      }
    }
  }
}
MOTION
Frames: 13
Frame Time: 0.0416666666667
0 103.5113 0 2.757428 -0.1373011 0.206357 3.415482 -15.73335 10.94484 -0 36.50381 -0 -2.734772 -19.01718 -2.847129 -8.959627 9.642585 -22.2932 -0 3.877696 -0 21.15809 -9.148996 28.64658 -2.923273 -1.689907 5.526929 1.745843 10.73552 -6.214955 2.100077 21.97207 6.093719 2.802965 -25.08497 10.19675 5.181232 -20.12359 10.70687 87.58644 40.27586 -17.75214 -0 0 14.42613 -6.758988 7.93976 4.18342 4.661748 -18.97129 -3.248447 -91.32473 22.03705 20.89536 0 0 -17.03314 15.21424 12.49145 -2.303727
0.4559486 103.5568 1.521761 2.263502 0.9048759 0.3293663 4.405105 -18.33386 11.1614 -0 35.97796 -0 -3.119498 -18.43768 -2.538408 -8.941321 9.796117 -22.58992 -0 4.434705 -0 21.04958 -10.23019 29.34005 -2.866947 -1.679005 5.418706 1.943633 10.75815 -6.38206 2.012793 21.84819 6.224821 2.737627 -25.36793 10.31396 5.164755 -20.13906 10.83867 87.83022 40.40972 -18.15558 -0 0 14.13597 -6.410638 7.973232 4.305657 4.618195 -19.04871 -3.303138 -90.8446 22.04123 20.52022 0 0 -18.41364 15.39012 11.88532 -2.434339
0.8325693 102.8482 3.992786 1.442251 -1.136115 0.4551998 2.411137 -20.50152 2.622828 -0 26.35385 -0 -6.87154 -9.89319 -0.8457201 -7.365139 11.51625 -19.77253 -0 4.667238 -0 10.12224 -16.91996 23.30157 -2.890195 -1.64729 5.38579 1.953073 10.74497 -6.390846 1.986982 21.83968 6.295768 2.754359 -25.38113 10.35603 5.14751 -20.1523 10.86416 87.89022 40.55806 -18.15894 -0 0 14.07512 -6.407557 7.971111 4.358161 4.624952 -19.05685 -3.3184 -90.63968 21.93717 20.32254 0 0 -18.77527 15.52202 11.70355 -2.61347
1.123014 102.5102 6.3338 0.814697 1.025257 0.4630158 4.182666 -24.35312 5.318583 -0 27.06934 -0 -6.039289 -11.15574 -1.336331 -7.453865 11.67765 -20.66222 -0 5.35602 -0 10.8883 -18.06756 24.81198 -2.896959 -1.782154 5.467926 2.047792 10.76772 -6.501804 2.00046 21.73323 6.260984 2.672269 -25.77669 10.47873 5.081382 -20.42594 10.82704 88.09599 40.53803 -18.49813 -0 0 14.39765 -5.923743 7.844409 4.114894 4.609309 -19.1074 -3.315541 -90.79915 22.17324 20.59944 0 0 -19.16901 15.66534 11.5998 -2.63197
1.393834 101.9787 8.924272 0.4797484 1.31387 0.5256812 4.414849 -26.54506 4.51078 -0 24.62729 -0 -6.364573 -9.24039 -1.100255 -7.166603 12.04689 -19.81981 -0 5.809497 -0 9.583003 -19.28602 23.72863 -2.98076 -2.002178 5.654316 2.120576 10.7899 -6.627397 2.050513 21.59067 6.202386 2.567953 -26.40079 10.70999 4.927625 -20.98825 10.70236 88.45525 40.63005 -18.92615 -0 0 15.14141 -5.169859 7.559474 3.633044 4.598838 -19.15884 -3.316336 -91.10601 22.49861 21.08832 0 0 -19.63803 16.03049 11.48821 -2.834938
1.637537 101.4967 11.73115 -0.06746744 2.668776 0.6432173 5.700243 -30.05795 5.441303 -0 22.5704 -0 -6.161569 -8.242862 -1.089416 -7.000477 12.2933 -19.52757 -0 6.712974 -0 9.348685 -20.47772 23.65239 -2.90385 -2.238512 5.769968 2.291616 10.83919 -6.808398 2.096573 21.44008 6.047213 2.406502 -26.94119 10.80496 4.878382 -21.26395 10.64193 88.64806 40.22593 -19.5002 -0 0 15.52622 -4.480201 7.423977 3.269325 4.573438 -19.24107 -3.289199 -91.62005 23.055 21.72187 0 0 -19.78206 15.93522 11.60196 -2.461747
1.871923 100.8692 14.95445 -0.3828802 3.253811 0.8594203 6.234521 -32.66933 5.010974 -0 19.31921 -0 -6.280426 -6.071488 -0.7902814 -6.780121 12.78455 -18.49646 -0 7.761179 -0 8.709379 -21.31282 22.60458 -2.816712 -2.460247 5.864904 2.450777 10.8796 -6.978391 2.143462 21.3059 5.891456 2.257775 -27.42131 10.87581 4.842238 -21.4807 10.58146 88.80833 39.76666 -20.05137 -0 0 15.84713 -3.860506 7.304991 2.928483 4.566463 -19.32802 -3.260915 -92.14467 23.60752 22.32405 0 0 -19.84777 15.7881 11.77482 -2.049609
2.095421 100.1821 18.74016 -0.7468904 3.839182 1.252102 6.869576 -35.06172 4.697473 -0 15.97162 -0 -6.430986 -3.704083 -0.54642 -6.468294 13.52596 -17.38051 -0 9.479958 -0 7.597267 -22.03247 21.21069 -2.621957 -2.700781 5.900236 2.702792 10.93043 -7.21597 2.171509 21.13904 5.699645 2.070461 -27.9252 10.88063 4.862976 -21.54453 10.57399 88.91045 38.99741 -20.77791 -0 0 15.94449 -3.18908 7.249306 2.648812 4.563083 -19.46382 -3.230588 -92.75531 24.33085 22.98344 0 0 -19.97686 15.37513 12.00435 -1.29624
2.302204 99.4668 23.25397 -1.030118 3.849563 1.842906 7.074979 -36.11465 3.743661 -0 12.96569 -0 -6.79625 -1.029532 -0.3462056 -6.032569 14.64118 -15.86985 -0 12.15793 -0 5.626854 -22.14925 18.96271 -2.402538 -2.884798 5.882 2.95182 10.9737 -7.439964 2.173244 20.99039 5.536694 1.913372 -28.31057 10.82553 4.916199 -21.48553 10.60725 88.94741 38.20999 -21.43794 -0 0 15.86478 -2.66348 7.23602 2.488623 4.564649 -19.60473 -3.220089 -93.2539 24.97923 23.50063 0 0 -20.15028 14.86393 12.19251 -0.4870696
2.487321 98.93807 28.57825 -1.411221 3.531835 2.610358 7.254818 -35.44687 2.815253 -0 11.46664 -0 -7.280865 1.073493 -0.4570787 -5.374409 15.85347 -14.23748 -0 16.42209 -0 2.399386 -21.28564 15.89075 -2.146338 -2.980191 5.792781 3.198361 11.01688 -7.64217 2.132204 20.86801 5.410025 1.798817 -28.50782 10.66664 5.021226 -21.24206 10.70966 88.87955 37.4149 -21.98328 -0 0 15.51603 -2.378792 7.298316 2.526051 4.552132 -19.74523 -3.240791 -93.56789 25.49363 23.81349 0 0 -20.34581 14.19243 12.29377 0.4226875
2.658045 98.8456 34.59225 -1.965921 3.074463 3.3586 7.60321 -32.76181 2.293715 -0 12.16405 -0 -7.816804 1.717588 -0.9659642 -4.50386 16.31917 -12.65046 -0 22.76295 -0 -1.595553 -18.69476 12.4123 -1.938045 -2.91351 5.646037 3.338003 11.0543 -7.731328 2.050977 20.83707 5.367396 1.787643 -28.32514 10.40255 5.166956 -20.81064 10.8682 88.67564 36.89834 -22.14357 -0 0 14.90533 -2.605156 7.475655 2.835689 4.518689 -19.83143 -3.285513 -93.50825 25.60752 23.72153 0 0 -20.36909 13.51953 12.2703 1.159847
2.831624 99.3332 40.91577 -2.678337 2.839059 3.782707 8.213232 -28.67389 2.661976 -0 14.48036 -0 -8.329403 0.2518475 -1.724696 -3.522017 14.75349 -11.52931 -0 31.18591 -0 -5.078796 -14.21593 9.58902 -1.81744 -2.680546 5.463201 3.32367 11.08532 -7.674587 1.949102 20.9232 5.408883 1.890014 -27.70631 10.05517 5.340305 -20.21542 11.05378 88.33616 36.73214 -21.83698 -0 0 14.08869 -3.422845 7.787974 3.399871 4.47545 -19.84573 -3.331378 -93.06816 25.26279 23.19167 0 0 -20.08341 12.91978 12.17523 1.622425
3.008259 100.264 47.16202 -3.093933 2.378876 3.661929 8.620693 -24.0181 3.503274 -0 16.32286 -0 -8.764324 -2.416098 -2.346381 -2.753088 10.87736 -10.86289 -0 41.10435 -0 -6.719715 -9.143546 8.415004 -1.799977 -2.375413 5.304654 3.159462 11.09942 -7.492905 1.875227 21.10346 5.483229 2.060033 -26.83257 9.713991 5.498857 -19.61553 11.19176 87.92823 36.8162 -21.18161 -0 0 13.3361 -4.574038 8.144743 4.018987 4.453791 -19.79268 -3.350153 -92.51367 24.67239 22.47586 0 0 -19.44903 12.46298 12.1632 1.814754
